<mxfile host="app.diagrams.net" agent="Mozilla/5.0 (Windows NT 10.0; Win64; x64) AppleWebKit/537.36 (KHTML, like Gecko) Chrome/131.0.0.0 Safari/537.36 Edg/131.0.0.0" version="26.0.6">
  <diagram name="Page-1" id="c7558073-3199-34d8-9f00-42111426c3f3">
    <mxGraphModel dx="900" dy="573" grid="1" gridSize="10" guides="1" tooltips="1" connect="1" arrows="1" fold="1" page="1" pageScale="1" pageWidth="826" pageHeight="1169" background="none" math="0" shadow="0">
      <root>
        <mxCell id="0" />
        <mxCell id="1" parent="0" />
        <mxCell id="OM6LCN_4-8OB91uzV0C4-133" value="" style="rounded=1;whiteSpace=wrap;html=1;labelBackgroundColor=#FFFFFF;labelBorderColor=default;textShadow=1;fillColor=#ffe6cc;strokeColor=#d79b00;" vertex="1" parent="1">
          <mxGeometry x="16.5" width="844" height="270" as="geometry" />
        </mxCell>
        <mxCell id="2" value="&lt;p style=&quot;margin: 0px; margin-top: 4px; text-align: center; text-decoration: underline;&quot;&gt;&lt;/p&gt;&lt;p style=&quot;margin: 0px; margin-left: 8px;&quot;&gt;&lt;br&gt;&lt;/p&gt;&lt;p style=&quot;margin: 0px; margin-left: 8px;&quot;&gt;&lt;br&gt;&lt;/p&gt;&lt;p style=&quot;margin: 0px; margin-left: 8px;&quot;&gt;Math Expression&amp;nbsp;&lt;/p&gt;&lt;p style=&quot;margin: 0px; margin-left: 8px;&quot;&gt;Extractor&lt;/p&gt;" style="verticalAlign=middle;align=center;overflow=fill;fontSize=12;fontFamily=Helvetica;html=1;rounded=1;fontStyle=1;strokeWidth=3;fillColor=#E6FFCC" parent="1" vertex="1">
          <mxGeometry x="211" y="15" width="120" height="90" as="geometry" />
        </mxCell>
        <mxCell id="4" value="paper" style="whiteSpace=wrap;align=center;verticalAlign=middle;fontStyle=1;strokeWidth=3;fillColor=#FFFFCC" parent="1" vertex="1">
          <mxGeometry x="60" y="30" width="90" height="60" as="geometry" />
        </mxCell>
        <mxCell id="5" value="ON-DEMAND SYSTEM DEVELOPMENT" style="shape=process;whiteSpace=wrap;align=center;verticalAlign=middle;size=0.0475;fontStyle=1;strokeWidth=3;fillColor=#FFCCCC" parent="1" vertex="1">
          <mxGeometry x="200.99999999999991" y="391" width="400" height="50" as="geometry" />
        </mxCell>
        <mxCell id="7" value="&lt;p style=&quot;margin: 0px; margin-top: 4px; text-align: center; text-decoration: underline;&quot;&gt;&lt;strong&gt;&lt;strong&gt;Process&lt;/strong&gt; 3&lt;br /&gt;&lt;/strong&gt;&lt;/p&gt;&lt;hr /&gt;&lt;p style=&quot;margin: 0px; margin-left: 8px;&quot;&gt;List Possible&lt;/p&gt;&lt;p style=&quot;margin: 0px; margin-left: 8px;&quot;&gt;System Solutions&lt;/p&gt;" style="verticalAlign=middle;align=center;overflow=fill;fontSize=12;fontFamily=Helvetica;html=1;rounded=1;fontStyle=1;strokeWidth=3;fillColor=#E6FFCC" parent="1" vertex="1">
          <mxGeometry x="681" y="371" width="110" height="90" as="geometry" />
        </mxCell>
        <mxCell id="8" value="&lt;p style=&quot;margin: 4px 0px 0px; text-align: center;&quot;&gt;&lt;span style=&quot;background-color: transparent; color: light-dark(rgb(0, 0, 0), rgb(255, 255, 255));&quot;&gt;&lt;br&gt;&lt;/span&gt;&lt;/p&gt;&lt;p style=&quot;margin: 4px 0px 0px; text-align: center;&quot;&gt;&lt;span style=&quot;background-color: transparent; color: light-dark(rgb(0, 0, 0), rgb(255, 255, 255));&quot;&gt;&lt;br&gt;&lt;/span&gt;&lt;/p&gt;&lt;p style=&quot;margin: 4px 0px 0px; text-align: center;&quot;&gt;&lt;span style=&quot;background-color: transparent; color: light-dark(rgb(0, 0, 0), rgb(255, 255, 255));&quot;&gt;Answer Retriever&lt;/span&gt;&lt;/p&gt;" style="verticalAlign=middle;align=center;overflow=fill;fontSize=12;fontFamily=Helvetica;html=1;rounded=1;fontStyle=1;strokeWidth=3;fillColor=#E6FFCC" parent="1" vertex="1">
          <mxGeometry x="650" y="18.75" width="118.5" height="82.5" as="geometry" />
        </mxCell>
        <mxCell id="9" value="&lt;p style=&quot;margin: 0px; margin-top: 4px; text-align: center; text-decoration: underline;&quot;&gt;&lt;strong&gt;&lt;strong&gt;Process&lt;/strong&gt; 5&lt;br /&gt;&lt;/strong&gt;&lt;/p&gt;&lt;hr /&gt;&lt;p style=&quot;margin: 0px; margin-left: 8px;&quot;&gt;New System&lt;/p&gt;&lt;p style=&quot;margin: 0px; margin-left: 8px;&quot;&gt;Design&lt;/p&gt;" style="verticalAlign=middle;align=center;overflow=fill;fontSize=12;fontFamily=Helvetica;html=1;rounded=1;fontStyle=1;strokeWidth=3;fillColor=#E6FFCC" parent="1" vertex="1">
          <mxGeometry x="540" y="510" width="110" height="90" as="geometry" />
        </mxCell>
        <mxCell id="10" value="&lt;p style=&quot;margin: 0px; margin-top: 4px; text-align: center; text-decoration: underline;&quot;&gt;&lt;strong&gt;&lt;strong&gt;Process&lt;/strong&gt; 6&lt;br /&gt;&lt;/strong&gt;&lt;/p&gt;&lt;hr /&gt;&lt;p style=&quot;margin: 0px; margin-left: 8px;&quot;&gt;New&lt;/p&gt;&lt;p style=&quot;margin: 0px; margin-left: 8px;&quot;&gt;System&lt;/p&gt;&lt;p style=&quot;margin: 0px; margin-left: 8px;&quot;&gt;Construction&lt;/p&gt;" style="verticalAlign=middle;align=center;overflow=fill;fontSize=12;fontFamily=Helvetica;html=1;rounded=1;fontStyle=1;strokeWidth=3;fillColor=#E6FFCC" parent="1" vertex="1">
          <mxGeometry x="188.49999999999991" y="510" width="110" height="90" as="geometry" />
        </mxCell>
        <mxCell id="12" value="Management" style="whiteSpace=wrap;align=center;verticalAlign=middle;fontStyle=1;strokeWidth=3;fillColor=#FFFFCC" parent="1" vertex="1">
          <mxGeometry x="67.5" y="371" width="90" height="60" as="geometry" />
        </mxCell>
        <mxCell id="13" value="Management" style="whiteSpace=wrap;align=center;verticalAlign=middle;fontStyle=1;strokeWidth=3;fillColor=#FFFFCC" parent="1" vertex="1">
          <mxGeometry x="353.50000000000006" y="650" width="90" height="60" as="geometry" />
        </mxCell>
        <mxCell id="14" value="Engineering" style="whiteSpace=wrap;align=center;verticalAlign=middle;fontStyle=1;strokeWidth=3;fillColor=#FFFFCC" parent="1" vertex="1">
          <mxGeometry x="34.99999999999997" y="524.9999999999999" width="90" height="60" as="geometry" />
        </mxCell>
        <mxCell id="15" value="Vendors" style="whiteSpace=wrap;align=center;verticalAlign=middle;fontStyle=1;strokeWidth=3;fillColor=#FFFFCC" parent="1" vertex="1">
          <mxGeometry x="549.9999999999999" y="650" width="90" height="60" as="geometry" />
        </mxCell>
        <mxCell id="37" value="" style="edgeStyle=none;noEdgeStyle=1;strokeColor=#990000;strokeWidth=2" parent="1" source="4" target="2" edge="1">
          <mxGeometry width="100" height="100" relative="1" as="geometry">
            <mxPoint x="280" y="190" as="sourcePoint" />
            <mxPoint x="380" y="90" as="targetPoint" />
          </mxGeometry>
        </mxCell>
        <mxCell id="11" value="&lt;p style=&quot;margin: 0px; margin-top: 4px; text-align: center; text-decoration: underline;&quot;&gt;&lt;strong&gt;&lt;strong&gt;Process&lt;/strong&gt; 7&lt;br /&gt;&lt;/strong&gt;&lt;/p&gt;&lt;hr /&gt;&lt;p style=&quot;margin: 0px; margin-left: 8px;&quot;&gt;New System&lt;/p&gt;&lt;p style=&quot;margin: 0px; margin-left: 8px;&quot;&gt;Startup and&lt;/p&gt;&lt;p style=&quot;margin: 0px; margin-left: 8px;&quot;&gt;Testing&lt;/p&gt;" style="verticalAlign=middle;align=center;overflow=fill;fontSize=12;fontFamily=Helvetica;html=1;rounded=1;fontStyle=1;strokeWidth=3;fillColor=#E6FFCC" parent="1" vertex="1">
          <mxGeometry x="343.49999999999994" y="510" width="110" height="90" as="geometry" />
        </mxCell>
        <mxCell id="51" value="" style="endArrow=none;noEdgeStyle=1;strokeColor=#990000;strokeWidth=2" parent="1" source="9" target="11" edge="1">
          <mxGeometry relative="1" as="geometry">
            <mxPoint x="205.00819672131135" y="481" as="sourcePoint" />
            <mxPoint x="400.32786885245895" y="650" as="targetPoint" />
          </mxGeometry>
        </mxCell>
        <mxCell id="72" value="" style="edgeStyle=elbowEdgeStyle;elbow=vertical;strokeColor=#990000;strokeWidth=2" parent="1" source="5" target="7" edge="1">
          <mxGeometry width="100" height="100" relative="1" as="geometry">
            <mxPoint x="500" y="500" as="sourcePoint" />
            <mxPoint x="600" y="400" as="targetPoint" />
            <Array as="points">
              <mxPoint x="650" y="410" />
            </Array>
          </mxGeometry>
        </mxCell>
        <mxCell id="73" value="" style="edgeStyle=elbowEdgeStyle;elbow=vertical;strokeColor=#990000;strokeWidth=2" parent="1" source="7" target="5" edge="1">
          <mxGeometry width="100" height="100" relative="1" as="geometry">
            <mxPoint x="460" y="500" as="sourcePoint" />
            <mxPoint x="560" y="400" as="targetPoint" />
            <Array as="points">
              <mxPoint x="650" y="430" />
            </Array>
          </mxGeometry>
        </mxCell>
        <mxCell id="74" value="Resources" style="text;spacingTop=-5;align=center" parent="1" vertex="1">
          <mxGeometry x="621" y="390.99999999999994" width="30" height="20" as="geometry" />
        </mxCell>
        <mxCell id="75" value="System &#xa;Advantages &#xa;and Limitations" style="text;spacingTop=-5;align=center" parent="1" vertex="1">
          <mxGeometry x="630" y="431.0000000000001" width="30" height="20" as="geometry" />
        </mxCell>
        <mxCell id="76" value="" style="edgeStyle=elbowEdgeStyle;elbow=horizontal;strokeColor=#990000;strokeWidth=2" parent="1" source="9" target="5" edge="1">
          <mxGeometry width="100" height="100" relative="1" as="geometry">
            <mxPoint x="420" y="580" as="sourcePoint" />
            <mxPoint x="520" y="480" as="targetPoint" />
            <Array as="points">
              <mxPoint x="570" y="470" />
            </Array>
          </mxGeometry>
        </mxCell>
        <mxCell id="77" value="" style="edgeStyle=elbowEdgeStyle;elbow=horizontal;strokeColor=#990000;strokeWidth=2" parent="1" source="5" target="9" edge="1">
          <mxGeometry width="100" height="100" relative="1" as="geometry">
            <mxPoint x="400" y="590" as="sourcePoint" />
            <mxPoint x="500" y="490" as="targetPoint" />
            <Array as="points">
              <mxPoint x="560" y="480" />
            </Array>
          </mxGeometry>
        </mxCell>
        <mxCell id="78" value="" style="edgeStyle=elbowEdgeStyle;elbow=horizontal;strokeColor=#990000;strokeWidth=2" parent="1" source="15" target="9" edge="1">
          <mxGeometry width="100" height="100" relative="1" as="geometry">
            <mxPoint x="430" y="700" as="sourcePoint" />
            <mxPoint x="530" y="600" as="targetPoint" />
          </mxGeometry>
        </mxCell>
        <mxCell id="79" value="Hardware and&#xa;Software specs" style="text;spacingTop=-5;align=center" parent="1" vertex="1">
          <mxGeometry x="625" y="610" width="30" height="20" as="geometry" />
        </mxCell>
        <mxCell id="81" value="" style="edgeStyle=elbowEdgeStyle;elbow=horizontal;exitX=0;exitY=0.75;strokeColor=#990000;strokeWidth=2" parent="1" source="9" target="13" edge="1">
          <mxGeometry width="100" height="100" relative="1" as="geometry">
            <mxPoint x="420" y="730" as="sourcePoint" />
            <mxPoint x="520" y="630" as="targetPoint" />
            <Array as="points">
              <mxPoint x="470" y="630" />
            </Array>
          </mxGeometry>
        </mxCell>
        <mxCell id="82" value="Progress&#xa;Reports" style="text;spacingTop=-5;align=center" parent="1" vertex="1">
          <mxGeometry x="481.0000000000004" y="610.0000000000001" width="30" height="20" as="geometry" />
        </mxCell>
        <mxCell id="83" value="" style="edgeStyle=elbowEdgeStyle;elbow=horizontal;strokeColor=#990000;strokeWidth=2" parent="1" source="11" target="13" edge="1">
          <mxGeometry width="100" height="100" relative="1" as="geometry">
            <mxPoint x="200" y="660.0000000000002" as="sourcePoint" />
            <mxPoint x="230.0000000000001" y="650" as="targetPoint" />
          </mxGeometry>
        </mxCell>
        <mxCell id="84" value="Progress&#xa;Reports" style="text;spacingTop=-5;align=center" parent="1" vertex="1">
          <mxGeometry x="410.00000000000017" y="610.0000000000002" width="30" height="20" as="geometry" />
        </mxCell>
        <mxCell id="85" value="" style="edgeStyle=elbowEdgeStyle;elbow=horizontal;strokeColor=#990000;strokeWidth=2" parent="1" source="10" target="13" edge="1">
          <mxGeometry width="100" height="100" relative="1" as="geometry">
            <mxPoint x="130.0000000000001" y="740" as="sourcePoint" />
            <mxPoint x="230.0000000000001" y="640" as="targetPoint" />
            <Array as="points">
              <mxPoint x="244" y="630" />
            </Array>
          </mxGeometry>
        </mxCell>
        <mxCell id="86" value="Progress&#xa;Reports" style="text;spacingTop=-5;align=center" parent="1" vertex="1">
          <mxGeometry x="255.99999999999994" y="650.0000000000001" width="30" height="20" as="geometry" />
        </mxCell>
        <mxCell id="87" value="" style="edgeStyle=elbowEdgeStyle;elbow=vertical;strokeColor=#990000;strokeWidth=2" parent="1" source="10" target="14" edge="1">
          <mxGeometry width="100" height="100" relative="1" as="geometry">
            <mxPoint x="70" y="740" as="sourcePoint" />
            <mxPoint x="170" y="640" as="targetPoint" />
          </mxGeometry>
        </mxCell>
        <mxCell id="88" value="" style="edgeStyle=elbowEdgeStyle;elbow=horizontal;strokeColor=#990000;strokeWidth=2" parent="1" source="5" target="11" edge="1">
          <mxGeometry width="100" height="100" relative="1" as="geometry">
            <mxPoint x="50" y="500" as="sourcePoint" />
            <mxPoint x="150" y="400" as="targetPoint" />
            <Array as="points">
              <mxPoint x="390" y="470" />
            </Array>
          </mxGeometry>
        </mxCell>
        <mxCell id="89" value="" style="edgeStyle=elbowEdgeStyle;elbow=horizontal;strokeColor=#990000;strokeWidth=2" parent="1" source="11" target="5" edge="1">
          <mxGeometry width="100" height="100" relative="1" as="geometry">
            <mxPoint x="59.999999999999886" y="510" as="sourcePoint" />
            <mxPoint x="159.9999999999999" y="410" as="targetPoint" />
            <Array as="points">
              <mxPoint x="410" y="470" />
            </Array>
          </mxGeometry>
        </mxCell>
        <mxCell id="90" value="Version&#xa;specs" style="text;spacingTop=-5;align=center" parent="1" vertex="1">
          <mxGeometry x="261" y="461" width="30" height="20" as="geometry" />
        </mxCell>
        <mxCell id="91" value="Certificates,&#xa;system&#xa;libraries" style="text;spacingTop=-5;align=center" parent="1" vertex="1">
          <mxGeometry x="180" y="461.0000000000002" width="30" height="20" as="geometry" />
        </mxCell>
        <mxCell id="92" value="" style="edgeStyle=elbowEdgeStyle;elbow=horizontal;strokeColor=#990000;strokeWidth=2" parent="1" source="5" target="10" edge="1">
          <mxGeometry width="100" height="100" relative="1" as="geometry">
            <mxPoint x="30.000000000000114" y="500" as="sourcePoint" />
            <mxPoint x="130.0000000000001" y="400" as="targetPoint" />
            <Array as="points">
              <mxPoint x="250" y="470" />
            </Array>
          </mxGeometry>
        </mxCell>
        <mxCell id="93" value="" style="edgeStyle=elbowEdgeStyle;elbow=horizontal;strokeColor=#990000;strokeWidth=2" parent="1" source="10" target="5" edge="1">
          <mxGeometry width="100" height="100" relative="1" as="geometry">
            <mxPoint x="40" y="510" as="sourcePoint" />
            <mxPoint x="140" y="410" as="targetPoint" />
            <Array as="points">
              <mxPoint x="230" y="470" />
            </Array>
          </mxGeometry>
        </mxCell>
        <mxCell id="94" value="System&#xa;specs" style="text;spacingTop=-5;align=center" parent="1" vertex="1">
          <mxGeometry x="139.99999999999994" y="565.0000000000001" width="30" height="20" as="geometry" />
        </mxCell>
        <mxCell id="95" value="Design&#xa;specs" style="text;spacingTop=-5;align=center" parent="1" vertex="1">
          <mxGeometry x="423.49999999999994" y="461.0000000000002" width="30" height="20" as="geometry" />
        </mxCell>
        <mxCell id="96" value="System&#xa;version" style="text;spacingTop=-5;align=center" parent="1" vertex="1">
          <mxGeometry x="350.9999999999998" y="461" width="30" height="20" as="geometry" />
        </mxCell>
        <mxCell id="OM6LCN_4-8OB91uzV0C4-102" value="" style="elbow=horizontal;strokeColor=#990000;strokeWidth=2;exitX=1;exitY=0.5;exitDx=0;exitDy=0;entryX=0;entryY=0.5;entryDx=0;entryDy=0;" edge="1" parent="1" source="2" target="6">
          <mxGeometry width="100" height="100" relative="1" as="geometry">
            <mxPoint x="79.5" y="411" as="sourcePoint" />
            <mxPoint x="110" y="230" as="targetPoint" />
          </mxGeometry>
        </mxCell>
        <mxCell id="OM6LCN_4-8OB91uzV0C4-108" value="&lt;font style=&quot;font-size: 12px;&quot;&gt;Math expressions&lt;/font&gt;" style="edgeLabel;html=1;align=center;verticalAlign=middle;resizable=0;points=[];" vertex="1" connectable="0" parent="OM6LCN_4-8OB91uzV0C4-102">
          <mxGeometry x="-0.4177" y="4" relative="1" as="geometry">
            <mxPoint x="17" y="-6" as="offset" />
          </mxGeometry>
        </mxCell>
        <mxCell id="6" value="&lt;p style=&quot;margin: 0px; margin-top: 4px; text-align: center; text-decoration: underline;&quot;&gt;&lt;/p&gt;&lt;p style=&quot;margin: 0px; margin-left: 8px;&quot;&gt;&lt;span style=&quot;background-color: transparent; color: light-dark(rgb(0, 0, 0), rgb(255, 255, 255));&quot;&gt;&lt;br&gt;&lt;/span&gt;&lt;/p&gt;&lt;p style=&quot;margin: 0px; margin-left: 8px;&quot;&gt;&lt;span style=&quot;background-color: transparent; color: light-dark(rgb(0, 0, 0), rgb(255, 255, 255));&quot;&gt;&lt;br&gt;&lt;/span&gt;&lt;/p&gt;&lt;p style=&quot;margin: 0px; margin-left: 8px;&quot;&gt;&lt;span style=&quot;background-color: transparent; color: light-dark(rgb(0, 0, 0), rgb(255, 255, 255));&quot;&gt;Question Generator&lt;/span&gt;&lt;/p&gt;" style="verticalAlign=middle;align=center;overflow=fill;fontSize=12;fontFamily=Helvetica;html=1;rounded=1;fontStyle=1;strokeWidth=3;fillColor=#E6FFCC" parent="1" vertex="1">
          <mxGeometry x="443.5" y="15" width="135.5" height="90" as="geometry" />
        </mxCell>
        <mxCell id="OM6LCN_4-8OB91uzV0C4-111" value="" style="elbow=horizontal;strokeColor=#990000;strokeWidth=2;exitX=0.5;exitY=1;exitDx=0;exitDy=0;entryX=1;entryY=0.5;entryDx=0;entryDy=0;" edge="1" parent="1">
          <mxGeometry width="100" height="100" relative="1" as="geometry">
            <mxPoint x="709.25" y="105" as="sourcePoint" />
            <mxPoint x="640" y="198.75" as="targetPoint" />
            <Array as="points">
              <mxPoint x="710" y="198.75" />
            </Array>
          </mxGeometry>
        </mxCell>
        <mxCell id="OM6LCN_4-8OB91uzV0C4-112" value="&lt;font style=&quot;font-size: 12px;&quot;&gt;Q&amp;amp;A: queries with&lt;/font&gt;&lt;div&gt;&lt;font style=&quot;font-size: 12px;&quot;&gt;&amp;nbsp;whole_label&lt;/font&gt;&lt;/div&gt;" style="edgeLabel;html=1;align=left;verticalAlign=middle;resizable=0;points=[];" vertex="1" connectable="0" parent="OM6LCN_4-8OB91uzV0C4-111">
          <mxGeometry x="-0.4177" y="4" relative="1" as="geometry">
            <mxPoint x="-74" y="67" as="offset" />
          </mxGeometry>
        </mxCell>
        <mxCell id="OM6LCN_4-8OB91uzV0C4-114" value="&lt;p style=&quot;margin: 4px 0px 0px; text-align: center;&quot;&gt;&lt;br&gt;&lt;/p&gt;&lt;p style=&quot;margin: 4px 0px 0px; text-align: center;&quot;&gt;&lt;br&gt;&lt;/p&gt;&lt;p style=&quot;margin: 4px 0px 0px; text-align: center;&quot;&gt;Proof Filter&lt;/p&gt;" style="verticalAlign=middle;align=center;overflow=fill;fontSize=12;fontFamily=Helvetica;html=1;rounded=1;fontStyle=1;strokeWidth=3;fillColor=#E6FFCC" vertex="1" parent="1">
          <mxGeometry x="525" y="150" width="115" height="90" as="geometry" />
        </mxCell>
        <mxCell id="OM6LCN_4-8OB91uzV0C4-117" value="&lt;p style=&quot;margin: 4px 0px 0px; text-align: center;&quot;&gt;&lt;br&gt;&lt;/p&gt;&lt;p style=&quot;margin: 4px 0px 0px; text-align: center;&quot;&gt;&lt;br&gt;&lt;/p&gt;&lt;p style=&quot;margin: 4px 0px 0px; text-align: center;&quot;&gt;Context Collector&lt;/p&gt;" style="verticalAlign=middle;align=center;overflow=fill;fontSize=12;fontFamily=Helvetica;html=1;rounded=1;fontStyle=1;strokeWidth=3;fillColor=#E6FFCC" vertex="1" parent="1">
          <mxGeometry x="286" y="150" width="115" height="90" as="geometry" />
        </mxCell>
        <mxCell id="OM6LCN_4-8OB91uzV0C4-119" value="" style="elbow=horizontal;strokeColor=#990000;strokeWidth=2;exitX=0;exitY=0.5;exitDx=0;exitDy=0;entryX=1;entryY=0.5;entryDx=0;entryDy=0;" edge="1" parent="1" source="OM6LCN_4-8OB91uzV0C4-114" target="OM6LCN_4-8OB91uzV0C4-117">
          <mxGeometry width="100" height="100" relative="1" as="geometry">
            <mxPoint x="405" y="194.5" as="sourcePoint" />
            <mxPoint x="286" y="194.5" as="targetPoint" />
          </mxGeometry>
        </mxCell>
        <mxCell id="OM6LCN_4-8OB91uzV0C4-120" value="&lt;span style=&quot;font-size: 12px;&quot;&gt;Q&amp;amp;A:&amp;nbsp;derivation&lt;/span&gt;&lt;div&gt;&lt;span style=&quot;font-size: 12px;&quot;&gt;or&amp;nbsp;&lt;/span&gt;&lt;span style=&quot;font-size: 12px; background-color: light-dark(#ffffff, var(--ge-dark-color, #121212)); color: light-dark(rgb(0, 0, 0), rgb(255, 255, 255));&quot;&gt;proof&lt;/span&gt;&lt;/div&gt;" style="edgeLabel;html=1;align=center;verticalAlign=middle;resizable=0;points=[];" vertex="1" connectable="0" parent="OM6LCN_4-8OB91uzV0C4-119">
          <mxGeometry x="-0.4177" y="4" relative="1" as="geometry">
            <mxPoint x="-27" y="-29" as="offset" />
          </mxGeometry>
        </mxCell>
        <mxCell id="OM6LCN_4-8OB91uzV0C4-121" value="&lt;p style=&quot;margin: 4px 0px 0px; text-align: center;&quot;&gt;&lt;br&gt;&lt;/p&gt;&lt;p style=&quot;margin: 4px 0px 0px; text-align: center;&quot;&gt;&lt;br&gt;&lt;/p&gt;&lt;p style=&quot;margin: 4px 0px 0px; text-align: center;&quot;&gt;Logic Refiner&lt;/p&gt;" style="verticalAlign=middle;align=center;overflow=fill;fontSize=12;fontFamily=Helvetica;html=1;rounded=1;fontStyle=1;strokeWidth=3;fillColor=#E6FFCC" vertex="1" parent="1">
          <mxGeometry x="55" y="150" width="115" height="90" as="geometry" />
        </mxCell>
        <mxCell id="OM6LCN_4-8OB91uzV0C4-123" value="" style="elbow=horizontal;strokeColor=#990000;strokeWidth=2;entryX=0;entryY=0.5;entryDx=0;entryDy=0;exitX=1;exitY=0.5;exitDx=0;exitDy=0;" edge="1" parent="1" source="6" target="8">
          <mxGeometry width="100" height="100" relative="1" as="geometry">
            <mxPoint x="630" y="61" as="sourcePoint" />
            <mxPoint x="736" y="58.75" as="targetPoint" />
            <Array as="points" />
          </mxGeometry>
        </mxCell>
        <mxCell id="OM6LCN_4-8OB91uzV0C4-124" value="&lt;font&gt;queries&lt;/font&gt;" style="edgeLabel;html=1;align=center;verticalAlign=middle;resizable=0;points=[];rotation=1;fontSize=12;" vertex="1" connectable="0" parent="OM6LCN_4-8OB91uzV0C4-123">
          <mxGeometry x="-0.09" y="2" relative="1" as="geometry">
            <mxPoint x="3" y="-18" as="offset" />
          </mxGeometry>
        </mxCell>
        <mxCell id="OM6LCN_4-8OB91uzV0C4-127" value="" style="elbow=horizontal;strokeColor=#990000;strokeWidth=2;exitX=0;exitY=0.5;exitDx=0;exitDy=0;entryX=1;entryY=0.5;entryDx=0;entryDy=0;" edge="1" parent="1" source="OM6LCN_4-8OB91uzV0C4-117" target="OM6LCN_4-8OB91uzV0C4-121">
          <mxGeometry width="100" height="100" relative="1" as="geometry">
            <mxPoint x="291" y="194.5" as="sourcePoint" />
            <mxPoint x="167" y="194.5" as="targetPoint" />
          </mxGeometry>
        </mxCell>
        <mxCell id="OM6LCN_4-8OB91uzV0C4-128" value="&lt;span style=&quot;font-size: 12px;&quot;&gt;Q&amp;amp;A with evidence&lt;/span&gt;" style="edgeLabel;html=1;align=center;verticalAlign=middle;resizable=0;points=[];" vertex="1" connectable="0" parent="OM6LCN_4-8OB91uzV0C4-127">
          <mxGeometry x="-0.4177" y="4" relative="1" as="geometry">
            <mxPoint x="-27" y="-29" as="offset" />
          </mxGeometry>
        </mxCell>
        <mxCell id="OM6LCN_4-8OB91uzV0C4-130" value="" style="edgeStyle=elbowEdgeStyle;elbow=vertical;strokeColor=#990000;strokeWidth=2;entryX=0.5;entryY=0;entryDx=0;entryDy=0;exitX=0.5;exitY=1;exitDx=0;exitDy=0;" edge="1" parent="1">
          <mxGeometry width="100" height="100" relative="1" as="geometry">
            <mxPoint x="112" y="240" as="sourcePoint" />
            <mxPoint x="112" y="371" as="targetPoint" />
            <Array as="points">
              <mxPoint x="111.5" y="299" />
            </Array>
          </mxGeometry>
        </mxCell>
        <mxCell id="OM6LCN_4-8OB91uzV0C4-131" value="&lt;font style=&quot;font-size: 12px;&quot;&gt;initial genrated data&lt;/font&gt;" style="edgeLabel;html=1;align=center;verticalAlign=middle;resizable=0;points=[];textDirection=ltr;labelPosition=center;verticalLabelPosition=middle;" vertex="1" connectable="0" parent="OM6LCN_4-8OB91uzV0C4-130">
          <mxGeometry x="0.1908" y="-1" relative="1" as="geometry">
            <mxPoint x="59" y="-18" as="offset" />
          </mxGeometry>
        </mxCell>
      </root>
    </mxGraphModel>
  </diagram>
</mxfile>
